<svg version="1.1" id="Layer_1" xmlns="http://www.w3.org/2000/svg" xmlns:xlink="http://www.w3.org/1999/xlink" x="0px" y="0px"
	 width="100%" viewBox="0 0 1024 1024" enable-background="new 0 0 1024 1024" xml:space="preserve" fill="#7141EB">
<path fill="#000000" opacity="1.000000" stroke="none" 
	d="
M1025.000000,873.000000 
	C1025.000000,923.652344 1025.000000,974.304688 1025.000000,1024.978516 
	C683.777466,1024.978516 342.554962,1024.978516 1.000000,1024.978516 
	C1.000000,915.975342 1.000000,806.950317 1.349207,697.271729 
	C2.134083,697.269287 2.581344,697.912964 3.003620,698.572754 
	C6.434456,703.933044 9.095131,710.045837 13.453154,714.497314 
	C21.637180,722.856873 30.833559,730.221069 39.549896,738.064758 
	C50.245029,747.689209 60.670574,757.624634 71.589447,766.986145 
	C87.875465,780.949402 107.147842,781.884949 124.607895,769.810364 
	C130.821548,765.513184 136.635361,760.640808 142.674057,756.087158 
	C157.091263,745.215515 171.547592,734.395630 185.962570,723.520935 
	C206.153702,708.288696 226.360519,693.076660 246.480392,677.750732 
	C254.445740,671.683228 262.195709,665.332947 270.391174,659.044189 
	C276.840240,654.021912 282.941833,649.066833 289.362000,643.956238 
	C293.453796,641.187927 297.227081,638.575073 301.321472,636.068848 
	C313.411713,646.818420 325.180817,657.461304 337.086853,668.410156 
	C343.367981,674.200378 349.555817,679.636780 355.647888,685.178467 
	C371.035370,699.175720 386.377228,713.223083 401.742371,727.244873 
	C413.082214,737.593201 424.432373,747.930054 435.773651,758.276733 
	C451.018066,772.184326 466.252258,786.103088 481.502563,800.004211 
	C492.602631,810.122314 503.735718,820.204102 514.828674,830.329956 
	C530.437744,844.578247 546.055115,858.817749 561.607361,873.127930 
	C571.586487,882.309937 581.443542,891.624512 591.397400,900.834290 
	C592.071716,901.458252 593.100098,901.699707 594.099792,902.422852 
	C600.885681,908.397888 607.674072,913.916626 614.141663,919.788696 
	C619.306030,924.477783 623.928101,929.761475 629.055298,934.494751 
	C644.225952,948.500122 659.565063,962.322815 674.764587,976.297119 
	C684.875427,985.592896 694.802368,995.089050 704.939453,1004.355713 
	C707.658630,1006.841309 710.845886,1008.814880 713.988403,1011.337280 
	C725.035583,1019.221619 737.233276,1022.745361 750.353516,1022.939575 
	C760.804016,1023.094360 770.583008,1020.021301 779.929138,1015.541626 
	C796.223389,1007.731567 812.488342,999.860535 828.770752,992.025818 
	C854.311829,979.736023 879.864868,967.471008 905.397583,955.163940 
	C918.458130,948.868591 931.464111,942.460022 944.533875,936.183899 
	C960.805237,928.370300 977.280762,920.958862 993.321655,912.700623 
	C998.881409,909.838440 1004.038940,905.539612 1008.260864,900.882385 
	C1015.161621,893.270142 1020.527893,884.496582 1023.080933,874.290527 
	C1023.219849,873.735107 1024.337769,873.424561 1025.000000,873.000000 
z"/>
<path fill="#000000" opacity="1.000000" stroke="none" 
	d="
M0.999997,328.000000 
	C1.000000,219.030853 1.000000,110.061691 1.000000,1.058761 
	C342.333344,1.058761 683.666687,1.058761 1025.000000,1.058761 
	C1025.000000,52.103260 1025.000000,103.088997 1024.662842,154.673462 
	C1023.894653,154.483170 1023.463562,153.694138 1022.998840,152.673035 
	C1022.965149,152.440933 1022.811890,151.997604 1022.886230,151.647980 
	C1022.651855,150.499451 1022.343079,149.700546 1022.007996,148.583908 
	C1021.929260,147.845810 1021.876892,147.425461 1021.866333,146.738068 
	C1021.617004,146.280731 1021.325806,146.090424 1020.998352,145.670502 
	C1020.962097,145.440887 1020.810486,145.001358 1020.848694,144.738144 
	C1020.600586,144.285706 1020.314209,144.096466 1019.994141,143.679871 
	C1019.960388,143.452484 1019.809387,143.018219 1019.884277,142.676453 
	C1019.324341,141.199768 1018.689575,140.064819 1018.033813,138.963440 
	C1018.012878,138.996994 1018.076782,138.950302 1018.036316,138.587524 
	C1017.011108,137.113068 1016.026367,136.001373 1014.910522,134.578629 
	C1011.542236,130.370529 1008.684326,126.062088 1004.992493,122.658104 
	C996.019653,114.384842 984.901978,109.405052 974.129089,104.050865 
	C955.034180,94.560463 935.757507,85.435120 916.542725,76.186424 
	C900.544434,68.485916 884.518555,60.842751 868.517944,53.147141 
	C841.503601,40.154434 814.394653,27.352219 787.531738,14.053299 
	C772.189331,6.457774 756.713745,0.693019 739.192749,3.977656 
	C729.567322,5.782123 720.402161,8.605101 712.514038,14.956230 
	C712.334717,14.930499 712.009705,15.090529 711.751221,15.089622 
	C711.369995,15.380086 711.247253,15.671456 710.944153,16.265091 
	C700.858643,25.183094 690.770325,33.599155 681.099426,42.470303 
	C671.280640,51.477112 662.006470,61.075706 652.246399,70.148972 
	C643.791626,78.008804 634.979553,85.483765 626.344604,93.150475 
	C610.928223,106.838249 595.478088,120.488487 580.134338,134.257339 
	C568.729797,144.491348 557.471252,154.887970 546.147522,165.212051 
	C534.823730,175.536179 523.492676,185.852310 512.177856,196.186249 
	C496.722412,210.301880 481.288391,224.441010 465.827911,238.551102 
	C454.690399,248.715851 443.503204,258.826202 432.376587,269.002838 
	C416.685181,283.354614 401.003662,297.717377 385.367493,312.129242 
	C375.530426,321.196136 365.824707,330.405609 355.979889,339.463959 
	C351.043488,344.005981 345.927826,348.353119 340.604919,352.964294 
	C331.166382,361.746521 322.016205,370.352905 312.567230,379.104614 
	C308.522064,382.485962 304.775665,385.721985 301.012787,388.976196 
	C300.996277,388.994354 301.036194,388.969116 300.972656,388.714233 
	C300.568207,388.619232 300.227295,388.779144 299.556732,388.941711 
	C295.855865,386.347351 292.434937,383.811920 289.125000,381.139038 
	C283.975220,376.980499 279.008972,372.588196 273.768982,368.549255 
	C266.061188,362.608215 258.176117,356.897308 250.375153,351.076904 
	C241.648392,344.565765 232.852951,338.143280 224.231461,331.495361 
	C215.350723,324.647491 206.753296,317.430206 197.826950,310.644135 
	C190.116241,304.782196 182.000656,299.453186 174.283661,293.599091 
	C168.066879,288.883026 162.276291,283.608490 156.116714,278.812805 
	C149.744049,273.851196 143.449707,268.684418 136.580902,264.492584 
	C128.940628,259.829956 123.091125,252.826782 114.150208,249.715057 
	C99.856064,244.740280 86.592079,246.210083 75.012993,255.145981 
	C63.374630,264.127655 52.881290,274.602051 41.972454,284.517212 
	C33.044426,292.631989 24.314083,300.964813 15.358427,309.048431 
	C10.258154,313.652069 5.702914,318.492218 3.781334,325.356201 
	C3.485180,326.414093 1.957909,327.127350 0.999997,328.000000 
z"/>
<path fill="#22A7F2" opacity="1.000000" stroke="none" 
	d="
M1025.000000,379.000000 
	C1025.000000,475.687561 1025.000000,572.375122 1024.654785,669.707764 
	C1023.873291,672.211731 1023.090881,674.064697 1023.059692,675.930298 
	C1022.918091,684.415771 1023.100098,692.906921 1022.944031,701.391907 
	C1022.831482,707.510071 1021.570679,708.863403 1015.740906,708.970154 
	C1006.812256,709.133667 997.877502,708.924988 988.946838,709.021545 
	C974.892944,709.173462 960.840576,709.459045 946.787170,709.665344 
	C940.159790,709.762634 933.530457,709.918274 926.904114,709.847290 
	C918.678955,709.759277 910.456543,709.321350 902.232117,709.296448 
	C893.090698,709.268738 883.948059,709.662354 874.806641,709.635620 
	C867.222900,709.613464 859.638123,709.024475 852.057373,709.091064 
	C842.806213,709.172485 833.560486,709.806580 824.308716,709.938782 
	C820.182129,709.997864 816.048889,709.224731 811.914185,709.170044 
	C806.172607,709.093994 800.426941,709.406555 794.682617,709.427002 
	C788.816528,709.447937 782.949097,709.233459 777.083862,709.289917 
	C774.442810,709.315308 771.805664,709.748352 769.096924,709.532715 
	C769.016541,600.372620 769.005554,491.676361 769.002625,382.980103 
	C769.002563,381.985382 769.109924,380.990662 769.609497,379.996826 
	C781.649292,379.998657 793.246765,379.987488 804.844177,380.007111 
	C808.795715,380.013794 812.750793,380.230225 816.697754,380.119171 
	C824.955811,379.886749 833.217224,379.108643 841.463257,379.269775 
	C853.569763,379.506378 865.660767,380.759399 877.764465,380.862701 
	C891.723206,380.981842 905.687256,380.231567 919.651428,380.030060 
	C929.880615,379.882416 940.113770,380.011719 950.345154,380.016449 
	C959.350403,380.020630 968.357239,380.129822 977.360474,379.997101 
	C986.732849,379.858978 996.121216,379.004364 1005.465515,379.381073 
	C1012.022339,379.645386 1018.519409,381.660522 1025.000000,379.000000 
z"/>
<path fill="#25B0F3" opacity="1.000000" stroke="none" 
	d="
M1025.000000,378.531342 
	C1018.519409,381.660522 1012.022339,379.645386 1005.465515,379.381073 
	C996.121216,379.004364 986.732849,379.858978 977.360474,379.997101 
	C968.357239,380.129822 959.350403,380.020630 950.345154,380.016449 
	C940.113770,380.011719 929.880615,379.882416 919.651428,380.030060 
	C905.687256,380.231567 891.723206,380.981842 877.764465,380.862701 
	C865.660767,380.759399 853.569763,379.506378 841.463257,379.269775 
	C833.217224,379.108643 824.955811,379.886749 816.697754,380.119171 
	C812.750793,380.230225 808.795715,380.013794 804.844177,380.007111 
	C793.246765,379.987488 781.649292,379.998657 769.539673,379.533020 
	C768.995300,346.729431 768.963135,314.390564 768.974854,281.582825 
	C769.009583,231.714142 769.012878,182.314346 768.984436,132.914566 
	C768.974243,115.285347 768.887329,97.656174 768.882263,79.558723 
	C768.950623,71.633484 769.512756,64.128052 768.849976,56.732388 
	C768.106812,48.440113 766.255737,40.247131 764.785767,31.686808 
	C757.257690,18.839893 746.850342,11.172143 731.717834,12.123787 
	C725.341614,12.524769 719.032776,13.996798 712.693298,14.981961 
	C720.402161,8.605101 729.567322,5.782123 739.192749,3.977656 
	C756.713745,0.693019 772.189331,6.457774 787.531738,14.053299 
	C814.394653,27.352219 841.503601,40.154434 868.517944,53.147141 
	C884.518555,60.842751 900.544434,68.485916 916.542725,76.186424 
	C935.757507,85.435120 955.034180,94.560463 974.129089,104.050865 
	C984.901978,109.405052 996.019653,114.384842 1004.992493,122.658104 
	C1008.684326,126.062088 1011.542236,130.370529 1014.965454,134.921997 
	C1016.126587,136.701065 1017.101685,137.825684 1018.076782,138.950302 
	C1018.076782,138.950302 1018.012878,138.996994 1018.026245,139.316711 
	C1018.629517,140.763687 1019.219482,141.890961 1019.809387,143.018219 
	C1019.809387,143.018219 1019.960388,143.452484 1020.098511,143.879791 
	C1020.400574,144.561096 1020.591858,144.792511 1020.810486,145.001358 
	C1020.810486,145.001358 1020.962097,145.440887 1021.103394,145.872498 
	C1021.410522,146.560440 1021.603821,146.794098 1021.824585,147.005096 
	C1021.876892,147.425461 1021.929260,147.845810 1022.012451,148.910278 
	C1022.299438,150.368790 1022.555664,151.183197 1022.811890,151.997620 
	C1022.811890,151.997604 1022.965149,152.440933 1022.991089,153.117096 
	C1023.343872,159.597458 1023.614136,165.405670 1024.026001,171.203827 
	C1024.187744,173.480789 1024.666016,175.735275 1025.000000,178.000000 
	C1025.000000,244.687561 1025.000000,311.375122 1025.000000,378.531342 
z"/>
<path fill="#209FF0" opacity="1.000000" stroke="none" 
	d="
M769.166748,709.996521 
	C771.805664,709.748352 774.442810,709.315308 777.083862,709.289917 
	C782.949097,709.233459 788.816528,709.447937 794.682617,709.427002 
	C800.426941,709.406555 806.172607,709.093994 811.914185,709.170044 
	C816.048889,709.224731 820.182129,709.997864 824.308716,709.938782 
	C833.560486,709.806580 842.806213,709.172485 852.057373,709.091064 
	C859.638123,709.024475 867.222900,709.613464 874.806641,709.635620 
	C883.948059,709.662354 893.090698,709.268738 902.232117,709.296448 
	C910.456543,709.321350 918.678955,709.759277 926.904114,709.847290 
	C933.530457,709.918274 940.159790,709.762634 946.787170,709.665344 
	C960.840576,709.459045 974.892944,709.173462 988.946838,709.021545 
	C997.877502,708.924988 1006.812256,709.133667 1015.740906,708.970154 
	C1021.570679,708.863403 1022.831482,707.510071 1022.944031,701.391907 
	C1023.100098,692.906921 1022.918091,684.415771 1023.059692,675.930298 
	C1023.090881,674.064697 1023.873291,672.211731 1024.654785,670.176453 
	C1025.000000,737.354248 1025.000000,804.708435 1025.000000,872.531372 
	C1024.337769,873.424561 1023.219849,873.735107 1023.080933,874.290527 
	C1020.527893,884.496582 1015.161621,893.270142 1008.260864,900.882385 
	C1004.038940,905.539612 998.881409,909.838440 993.321655,912.700623 
	C977.280762,920.958862 960.805237,928.370300 944.533875,936.183899 
	C931.464111,942.460022 918.458130,948.868591 905.397583,955.163940 
	C879.864868,967.471008 854.311829,979.736023 828.770752,992.025818 
	C812.488342,999.860535 796.223389,1007.731567 779.929138,1015.541626 
	C770.583008,1020.021301 760.804016,1023.094360 750.353516,1022.939575 
	C737.233276,1022.745361 725.035583,1019.221619 714.374878,1011.387085 
	C720.402527,1012.336304 726.213806,1013.549438 732.420044,1014.747314 
	C756.080933,1012.724121 768.976990,995.139954 768.985535,976.241699 
	C769.020447,898.815369 768.952454,821.388977 768.953918,743.497253 
	C769.045898,732.020081 769.106323,721.008301 769.166748,709.996521 
z"/>
<path fill="#008DD4" opacity="1.000000" stroke="none" 
	d="
M0.999997,328.468658 
	C1.957909,327.127350 3.485180,326.414093 3.781334,325.356201 
	C5.702914,318.492218 10.258154,313.652069 15.358427,309.048431 
	C24.314083,300.964813 33.044426,292.631989 41.972454,284.517212 
	C52.881290,274.602051 63.374630,264.127655 75.012993,255.145981 
	C86.592079,246.210083 99.856064,244.740280 114.150208,249.715057 
	C123.091125,252.826782 128.940628,259.829956 136.580902,264.492584 
	C143.449707,268.684418 149.744049,273.851196 156.116714,278.812805 
	C162.276291,283.608490 168.066879,288.883026 174.283661,293.599091 
	C182.000656,299.453186 190.116241,304.782196 197.826950,310.644135 
	C206.753296,317.430206 215.350723,324.647491 224.231461,331.495361 
	C232.852951,338.143280 241.648392,344.565765 250.375153,351.076904 
	C258.176117,356.897308 266.061188,362.608215 273.768982,368.549255 
	C279.008972,372.588196 283.975220,376.980499 289.125000,381.139038 
	C292.434937,383.811920 295.855865,386.347351 299.843872,388.967468 
	C300.652527,388.983398 300.844360,388.976257 301.036194,388.969116 
	C301.036194,388.969116 300.996277,388.994354 301.060486,389.320007 
	C302.211670,390.841156 303.146057,392.236359 304.409088,393.201447 
	C317.465851,403.177734 330.583099,413.074921 343.669159,423.012939 
	C368.373016,441.773926 393.101257,460.503143 417.743164,479.345215 
	C424.308350,484.365143 430.597046,489.746765 436.835266,495.296814 
	C434.638428,496.420471 432.637634,497.822296 430.595978,497.884491 
	C424.308289,498.076050 417.999603,497.539307 411.709198,497.694244 
	C405.286713,497.852448 398.870453,498.923035 392.461548,498.837524 
	C378.175598,498.646912 363.897919,497.680603 349.613220,497.587830 
	C329.739105,497.458710 309.861755,497.851868 289.985565,497.994110 
	C285.177979,498.028503 280.367188,497.848328 275.562073,497.954865 
	C266.257538,498.161072 256.956726,498.690125 247.652985,498.726257 
	C240.069824,498.755737 232.485825,498.087585 224.900101,498.035614 
	C208.173920,497.920959 191.446411,497.995422 174.719437,498.002014 
	C166.775284,498.005127 158.831116,498.029602 150.580963,497.903168 
	C148.967911,496.789185 147.567276,495.919281 146.368362,494.827759 
	C134.635239,484.145935 122.947357,473.414398 111.223373,462.722504 
	C100.237373,452.703705 89.176460,442.766602 78.233398,432.701233 
	C64.472023,420.043518 50.832928,407.252808 37.065243,394.601990 
	C32.218594,390.148499 26.911810,386.178131 22.233852,381.562775 
	C14.668633,374.098785 5.791766,367.557831 2.924111,356.422638 
	C2.769690,355.823029 1.663261,355.468567 1.000000,355.000000 
	C1.000000,346.312439 1.000000,337.624878 0.999997,328.468658 
z"/>
<path fill="#006DB0" opacity="1.000000" stroke="none" 
	d="
M270.043701,659.111389 
	C262.195709,665.332947 254.445740,671.683228 246.480392,677.750732 
	C226.360519,693.076660 206.153702,708.288696 185.962570,723.520935 
	C171.547592,734.395630 157.091263,745.215515 142.674057,756.087158 
	C136.635361,760.640808 130.821548,765.513184 124.607895,769.810364 
	C107.147842,781.884949 87.875465,780.949402 71.589447,766.986145 
	C60.670574,757.624634 50.245029,747.689209 39.549896,738.064758 
	C30.833559,730.221069 21.637180,722.856873 13.453154,714.497314 
	C9.095131,710.045837 6.434456,703.933044 3.003620,698.572754 
	C2.581344,697.912964 2.134083,697.269287 1.349207,696.809082 
	C1.000000,688.645752 1.000000,680.291504 1.357750,671.649414 
	C3.210062,668.335999 4.150840,664.823181 6.303279,662.376221 
	C12.701985,655.102051 19.370844,648.034851 26.316753,641.280212 
	C35.806068,632.052307 45.561714,623.092041 55.358082,614.187439 
	C71.974342,599.083862 88.764740,584.171875 105.378044,569.065125 
	C115.295647,560.046875 124.948235,550.737427 134.851227,541.702820 
	C140.076859,536.935364 145.583954,532.476501 151.045044,528.226807 
	C152.492905,530.404663 153.674561,532.415710 155.259460,534.031189 
	C161.251022,540.137939 167.370682,546.119202 173.448166,552.141602 
	C176.377228,555.044067 179.395126,557.861145 182.238251,560.845093 
	C187.112000,565.960205 191.899612,571.158081 196.679077,576.361877 
	C197.907257,577.699097 198.865433,579.289673 200.126511,580.590515 
	C205.633453,586.270874 211.424942,591.691284 216.702057,597.574768 
	C223.964478,605.671753 230.610901,614.326904 237.970749,622.329407 
	C246.484680,631.586914 255.569412,640.317078 264.226318,649.446899 
	C266.812347,652.174194 271.107971,654.100647 270.043701,659.111389 
z"/>
<path fill="#000000" opacity="1.000000" stroke="none" 
	d="
M150.963974,527.878296 
	C145.583954,532.476501 140.076859,536.935364 134.851227,541.702820 
	C124.948235,550.737427 115.295647,560.046875 105.378044,569.065125 
	C88.764740,584.171875 71.974342,599.083862 55.358082,614.187439 
	C45.561714,623.092041 35.806068,632.052307 26.316753,641.280212 
	C19.370844,648.034851 12.701985,655.102051 6.303279,662.376221 
	C4.150840,664.823181 3.210062,668.335999 1.357750,671.180786 
	C1.000000,565.979126 1.000000,460.958221 1.000000,355.468658 
	C1.663261,355.468567 2.769690,355.823029 2.924111,356.422638 
	C5.791766,367.557831 14.668633,374.098785 22.233852,381.562775 
	C26.911810,386.178131 32.218594,390.148499 37.065243,394.601990 
	C50.832928,407.252808 64.472023,420.043518 78.233398,432.701233 
	C89.176460,442.766602 100.237373,452.703705 111.223373,462.722504 
	C122.947357,473.414398 134.635239,484.145935 146.368362,494.827759 
	C147.567276,495.919281 148.967911,496.789185 150.721161,498.210144 
	C156.165497,503.426270 161.163605,508.194122 166.012222,513.272400 
	C160.896469,518.347961 155.930222,523.113159 150.963974,527.878296 
z"/>
<path fill="#22A7F2" opacity="1.000000" stroke="none" 
	d="
M1025.000000,177.531372 
	C1024.666016,175.735275 1024.187744,173.480789 1024.026001,171.203827 
	C1023.614136,165.405670 1023.343872,159.597458 1023.024780,153.349197 
	C1023.463562,153.694138 1023.894653,154.483170 1024.662842,155.136108 
	C1025.000000,162.354248 1025.000000,169.708496 1025.000000,177.531372 
z"/>
<path fill="#0082CF" opacity="1.000000" stroke="none" 
	d="
M593.963806,902.119019 
	C593.100098,901.699707 592.071716,901.458252 591.397400,900.834290 
	C581.443542,891.624512 571.586487,882.309937 561.607361,873.127930 
	C546.055115,858.817749 530.437744,844.578247 514.828674,830.329956 
	C503.735718,820.204102 492.602631,810.122314 481.502563,800.004211 
	C466.252258,786.103088 451.018066,772.184326 435.773651,758.276733 
	C424.432373,747.930054 413.082214,737.593201 401.742371,727.244873 
	C386.377228,713.223083 371.035370,699.175720 355.647888,685.178467 
	C349.555817,679.636780 343.367981,674.200378 337.392487,668.229126 
	C346.343903,667.539368 355.128204,667.116577 363.908875,667.182129 
	C379.325836,667.297119 394.739685,667.780212 410.156494,667.977539 
	C421.908447,668.127930 433.662994,668.095215 445.416412,668.104980 
	C453.119110,668.111389 460.822784,667.968933 468.524048,668.059937 
	C471.164490,668.091125 473.806610,668.945007 476.434814,668.881226 
	C489.777618,668.557251 503.113861,667.849182 516.457092,667.701904 
	C523.192627,667.627563 529.942566,668.860840 536.678162,668.786621 
	C548.586670,668.655518 560.488953,667.970947 572.394409,667.531616 
	C575.524963,667.416016 578.659607,667.229065 581.788696,667.284180 
	C592.217102,667.467590 602.642883,667.800110 613.071411,667.967896 
	C619.319031,668.068420 625.569885,667.962952 631.819275,667.959717 
	C641.211670,667.954895 650.604065,667.958435 660.099670,667.958435 
	C659.893372,665.515503 659.757141,663.902161 659.896973,662.496460 
	C684.462341,681.430664 708.751587,700.157166 733.099487,719.251770 
	C733.174622,721.240540 733.404541,722.893433 733.165649,724.475586 
	C732.555176,728.519043 731.561584,732.508423 731.035583,736.560181 
	C729.882446,745.442993 729.703430,754.533875 727.672485,763.198914 
	C725.527222,772.351685 725.788025,781.267273 726.781616,790.369263 
	C727.280762,794.942566 726.425720,798.861694 721.891052,801.414673 
	C720.561768,802.163086 719.306091,804.177673 719.163086,805.718323 
	C718.020752,818.026794 717.883240,830.473694 711.291992,841.652222 
	C710.138000,843.609375 710.306458,846.503357 710.326599,848.960938 
	C710.361938,853.270569 710.925049,857.575989 710.959595,861.885559 
	C711.014893,868.779541 707.145691,873.021240 700.280457,873.964355 
	C694.931458,874.699158 693.916199,876.450989 694.143372,881.948730 
	C694.318787,886.195374 693.821655,890.522217 693.138062,894.734619 
	C692.637146,897.821045 690.812073,899.145508 687.301086,897.829102 
	C684.739380,896.868652 681.799561,896.579590 679.028076,896.578674 
	C670.122681,896.575684 661.215027,896.772522 652.312378,897.033508 
	C645.550903,897.231750 638.794250,897.927856 632.038025,897.894531 
	C622.782532,897.848938 613.530945,897.259766 604.274353,897.048767 
	C602.144348,897.000183 599.781433,897.076965 597.929810,897.951660 
	C596.312439,898.715515 595.263733,900.683228 593.963806,902.119019 
z"/>
<path fill="#0087D1" opacity="1.000000" stroke="none" 
	d="
M659.620850,662.288818 
	C659.757141,663.902161 659.893372,665.515503 660.099670,667.958435 
	C650.604065,667.958435 641.211670,667.954895 631.819275,667.959717 
	C625.569885,667.962952 619.319031,668.068420 613.071411,667.967896 
	C602.642883,667.800110 592.217102,667.467590 581.788696,667.284180 
	C578.659607,667.229065 575.524963,667.416016 572.394409,667.531616 
	C560.488953,667.970947 548.586670,668.655518 536.678162,668.786621 
	C529.942566,668.860840 523.192627,667.627563 516.457092,667.701904 
	C503.113861,667.849182 489.777618,668.557251 476.434814,668.881226 
	C473.806610,668.945007 471.164490,668.091125 468.524048,668.059937 
	C460.822784,667.968933 453.119110,668.111389 445.416412,668.104980 
	C433.662994,668.095215 421.908447,668.127930 410.156494,667.977539 
	C394.739685,667.780212 379.325836,667.297119 363.908875,667.182129 
	C355.128204,667.116577 346.343903,667.539368 337.255554,667.923218 
	C325.180817,657.461304 313.411713,646.818420 301.154358,635.783325 
	C294.394348,629.467102 288.240601,623.411804 281.828033,617.644287 
	C264.206329,601.795044 246.371719,586.181519 228.825104,570.250366 
	C216.914871,559.436707 205.411942,548.175720 193.599762,537.252258 
	C188.252258,532.307007 182.595978,527.695679 176.896118,522.655579 
	C173.195541,519.239502 169.678635,516.100769 166.161713,512.961975 
	C161.163605,508.194122 156.165497,503.426270 151.027161,498.351379 
	C158.831116,498.029602 166.775284,498.005127 174.719437,498.002014 
	C191.446411,497.995422 208.173920,497.920959 224.900101,498.035614 
	C232.485825,498.087585 240.069824,498.755737 247.652985,498.726257 
	C256.956726,498.690125 266.257538,498.161072 275.562073,497.954865 
	C280.367188,497.848328 285.177979,498.028503 289.985565,497.994110 
	C309.861755,497.851868 329.739105,497.458710 349.613220,497.587830 
	C363.897919,497.680603 378.175598,498.646912 392.461548,498.837524 
	C398.870453,498.923035 405.286713,497.852448 411.709198,497.694244 
	C417.999603,497.539307 424.308289,498.076050 430.595978,497.884491 
	C432.637634,497.822296 434.638428,496.420471 437.182800,495.365662 
	C439.268219,496.007141 440.905579,496.805054 442.376190,497.839966 
	C449.529785,502.873810 456.638794,507.971100 463.938843,513.348389 
	C475.490326,522.651733 486.748566,531.806946 498.268860,540.619568 
	C518.502869,556.097961 538.894409,571.370544 559.225525,586.721863 
	C576.687012,599.906311 594.129761,613.115906 611.632935,626.244751 
	C621.036011,633.297852 630.549011,640.204590 640.170288,647.332153 
	C640.549927,647.684204 640.793579,647.848938 641.341125,648.111206 
	C642.419617,648.887939 643.216248,649.534424 644.170105,650.335205 
	C644.548096,650.685974 644.790588,650.850403 645.337280,651.113770 
	C646.417419,651.893433 647.215393,652.541992 648.164734,653.343872 
	C648.528809,653.692810 648.762634,653.858704 649.295959,654.141602 
	C650.389465,654.938904 651.204529,655.589539 652.164185,656.387207 
	C652.513855,656.720276 652.739685,656.876099 653.274536,657.129272 
	C654.370850,657.919983 655.178772,658.583313 656.024170,659.600037 
	C657.205566,660.700012 658.349487,661.446472 659.546997,662.187988 
	C659.600708,662.182922 659.620850,662.288818 659.620850,662.288818 
z"/>
<path fill="#007ACC" opacity="1.000000" stroke="none" 
	d="
M594.099792,902.422852 
	C595.263733,900.683228 596.312439,898.715515 597.929810,897.951660 
	C599.781433,897.076965 602.144348,897.000183 604.274353,897.048767 
	C613.530945,897.259766 622.782532,897.848938 632.038025,897.894531 
	C638.794250,897.927856 645.550903,897.231750 652.312378,897.033508 
	C661.215027,896.772522 670.122681,896.575684 679.028076,896.578674 
	C681.799561,896.579590 684.739380,896.868652 687.301086,897.829102 
	C690.812073,899.145508 692.637146,897.821045 693.138062,894.734619 
	C693.821655,890.522217 694.318787,886.195374 694.143372,881.948730 
	C693.916199,876.450989 694.931458,874.699158 700.280457,873.964355 
	C707.145691,873.021240 711.014893,868.779541 710.959595,861.885559 
	C710.925049,857.575989 710.361938,853.270569 710.326599,848.960938 
	C710.306458,846.503357 710.138000,843.609375 711.291992,841.652222 
	C717.883240,830.473694 718.020752,818.026794 719.163086,805.718323 
	C719.306091,804.177673 720.561768,802.163086 721.891052,801.414673 
	C726.425720,798.861694 727.280762,794.942566 726.781616,790.369263 
	C725.788025,781.267273 725.527222,772.351685 727.672485,763.198914 
	C729.703430,754.533875 729.882446,745.442993 731.035583,736.560181 
	C731.561584,732.508423 732.555176,728.519043 733.165649,724.475586 
	C733.404541,722.893433 733.174622,721.240540 733.465881,719.300537 
	C734.410522,719.102112 735.202087,719.021423 735.661499,719.373779 
	C743.795044,725.612854 751.888184,731.904602 759.991577,738.608521 
	C758.827332,749.697632 757.652283,760.362122 756.500366,771.029114 
	C756.037903,775.311462 755.583008,779.595520 755.202148,783.885681 
	C754.723633,789.275391 754.144714,794.665161 753.933777,800.067566 
	C753.624573,807.983643 754.807861,815.874695 751.574951,823.694275 
	C749.667053,828.309143 749.329163,833.743225 749.101807,838.845276 
	C748.703186,847.791382 749.709412,856.821045 746.458923,865.508667 
	C745.914856,866.962891 746.350464,868.780396 746.317993,870.429749 
	C746.165710,878.158936 747.518066,886.318787 745.467102,893.507202 
	C742.945007,902.346924 742.037964,910.986511 741.871277,920.001770 
	C741.784180,924.709900 740.726501,929.492249 739.473633,934.067688 
	C736.765015,943.960266 733.369446,953.693909 736.446228,964.174744 
	C736.779541,965.310242 736.446106,966.865540 735.921326,967.993042 
	C732.119141,976.162048 731.398865,984.462402 733.923767,993.180481 
	C734.571960,995.418762 734.843079,998.672974 733.683655,1000.354980 
	C730.438232,1005.063232 730.004822,1009.662537 732.025024,1014.762634 
	C726.213806,1013.549438 720.402527,1012.336304 714.204834,1011.073242 
	C710.845886,1008.814880 707.658630,1006.841309 704.939453,1004.355713 
	C694.802368,995.089050 684.875427,985.592896 674.764587,976.297119 
	C659.565063,962.322815 644.225952,948.500122 629.055298,934.494751 
	C623.928101,929.761475 619.306030,924.477783 614.141663,919.788696 
	C607.674072,913.916626 600.885681,908.397888 594.099792,902.422852 
z"/>
<path fill="#0066AC" opacity="1.000000" stroke="none" 
	d="
M166.012238,513.272400 
	C169.678635,516.100769 173.195541,519.239502 176.698090,522.920776 
	C177.201248,525.099670 177.287262,527.099854 178.308777,528.311279 
	C183.525162,534.497314 188.801071,540.654114 194.396286,546.495239 
	C204.487274,557.029785 214.770355,567.382263 225.069916,577.714294 
	C231.369019,584.033325 238.813965,589.460693 244.038132,596.546448 
	C253.776367,609.754639 266.016327,620.300049 277.673157,631.531677 
	C281.733826,635.444214 285.268494,639.902588 289.043396,644.111694 
	C282.941833,649.066833 276.840240,654.021912 270.391174,659.044189 
	C271.107971,654.100647 266.812347,652.174194 264.226318,649.446899 
	C255.569412,640.317078 246.484680,631.586914 237.970749,622.329407 
	C230.610901,614.326904 223.964478,605.671753 216.702057,597.574768 
	C211.424942,591.691284 205.633453,586.270874 200.126511,580.590515 
	C198.865433,579.289673 197.907257,577.699097 196.679077,576.361877 
	C191.899612,571.158081 187.112000,565.960205 182.238251,560.845093 
	C179.395126,557.861145 176.377228,555.044067 173.448166,552.141602 
	C167.370682,546.119202 161.251022,540.137939 155.259460,534.031189 
	C153.674561,532.415710 152.492905,530.404663 151.045044,528.226807 
	C155.930222,523.113159 160.896469,518.347961 166.012238,513.272400 
z"/>
<path fill="#0063A9" opacity="1.000000" stroke="none" 
	d="
M289.361969,643.956238 
	C285.268494,639.902588 281.733826,635.444214 277.673157,631.531677 
	C266.016327,620.300049 253.776367,609.754639 244.038132,596.546448 
	C238.813965,589.460693 231.369019,584.033325 225.069916,577.714294 
	C214.770355,567.382263 204.487274,557.029785 194.396286,546.495239 
	C188.801071,540.654114 183.525162,534.497314 178.308777,528.311279 
	C177.287262,527.099854 177.201248,525.099670 176.881775,523.198059 
	C182.595978,527.695679 188.252258,532.307007 193.599762,537.252258 
	C205.411942,548.175720 216.914871,559.436707 228.825104,570.250366 
	C246.371719,586.181519 264.206329,601.795044 281.828033,617.644287 
	C288.240601,623.411804 294.394348,629.467102 300.833252,635.676636 
	C297.227081,638.575073 293.453796,641.187927 289.361969,643.956238 
z"/>
<path fill="#0077B9" opacity="1.000000" stroke="none" 
	d="
M712.514038,14.956230 
	C719.032776,13.996798 725.341614,12.524769 731.717834,12.123787 
	C746.850342,11.172143 757.257690,18.839893 764.435669,31.711885 
	C761.156616,34.487270 756.699951,36.317078 755.386047,39.460499 
	C752.408325,46.584450 750.263855,54.245930 749.091614,61.889893 
	C747.439148,72.665916 747.077820,83.634491 745.975830,94.501610 
	C744.086243,113.136238 742.044067,131.755386 740.082153,150.382721 
	C739.682190,154.179642 739.387634,157.987671 738.984985,161.784286 
	C737.923035,171.800354 736.974365,181.831573 735.700928,191.821121 
	C734.658081,200.002426 733.031860,208.109543 731.997314,216.291656 
	C730.979492,224.341553 730.561157,232.466965 729.555481,240.518707 
	C728.082764,252.308975 726.258606,264.054962 724.716003,275.837067 
	C724.168335,280.019836 724.313171,284.305695 723.602661,288.452087 
	C722.183289,296.734558 715.967773,303.252350 715.219055,312.037109 
	C714.819092,316.729797 711.816101,321.200623 709.768127,325.857849 
	C709.548340,325.944153 709.084290,326.032227 708.723816,326.049622 
	C707.253601,327.074951 706.143799,328.082855 704.883606,329.392548 
	C699.591003,333.747772 694.511047,337.883240 689.294678,341.838928 
	C674.827942,352.809235 660.326050,363.733612 645.793518,374.616699 
	C639.278809,379.495361 632.657898,384.232239 625.718018,389.050568 
	C622.915955,391.071411 620.481140,393.075165 618.034668,395.057617 
	C618.023010,395.036285 618.067566,395.058624 617.655151,395.048004 
	C606.427856,399.154053 595.209839,398.406555 583.959961,398.095490 
	C577.178528,397.907928 570.369080,398.966217 563.575623,398.923920 
	C553.328735,398.860199 543.085144,398.309326 532.839172,397.997406 
	C529.879761,397.907349 526.913513,397.820648 523.956482,397.917358 
	C517.330688,398.134003 510.711060,398.587891 504.084473,398.717102 
	C497.894348,398.837830 491.698456,398.663147 485.505096,398.620178 
	C481.713501,398.593903 477.921814,398.581299 474.130341,398.544525 
	C463.839386,398.444763 453.544800,398.466980 443.259216,398.174774 
	C438.042755,398.026581 432.722900,397.827850 427.673645,396.673065 
	C423.750641,395.775879 419.870514,393.810455 416.507385,391.529480 
	C409.556580,386.815125 399.330322,389.514496 393.998474,381.371735 
	C393.862274,381.163696 393.348633,381.240601 393.065063,381.085693 
	C386.797028,377.661041 380.308289,374.573334 374.337860,370.689331 
	C368.162018,366.671661 362.848114,361.248566 356.479340,357.634827 
	C351.855865,355.011444 346.128418,354.333710 340.893250,352.788422 
	C345.927826,348.353119 351.043488,344.005981 355.979889,339.463959 
	C365.824707,330.405609 375.530426,321.196136 385.367493,312.129242 
	C401.003662,297.717377 416.685181,283.354614 432.376587,269.002838 
	C443.503204,258.826202 454.690399,248.715851 465.827911,238.551102 
	C481.288391,224.441010 496.722412,210.301880 512.177856,196.186249 
	C523.492676,185.852310 534.823730,175.536179 546.147522,165.212051 
	C557.471252,154.887970 568.729797,144.491348 580.134338,134.257339 
	C595.478088,120.488487 610.928223,106.838249 626.344604,93.150475 
	C634.979553,85.483765 643.791626,78.008804 652.246399,70.148972 
	C662.006470,61.075706 671.280640,51.477112 681.099426,42.470303 
	C690.770325,33.599155 700.858643,25.183094 711.151489,16.187511 
	C711.818848,15.649225 711.975708,15.410180 712.009705,15.090529 
	C712.009705,15.090529 712.334717,14.930499 712.514038,14.956230 
z"/>
<path fill="#0071B3" opacity="1.000000" stroke="none" 
	d="
M340.604919,352.964294 
	C346.128418,354.333710 351.855865,355.011444 356.479340,357.634827 
	C362.848114,361.248566 368.162018,366.671661 374.337860,370.689331 
	C380.308289,374.573334 386.797028,377.661041 393.065063,381.085693 
	C393.348633,381.240601 393.862274,381.163696 393.998474,381.371735 
	C399.330322,389.514496 409.556580,386.815125 416.507385,391.529480 
	C419.870514,393.810455 423.750641,395.775879 427.673645,396.673065 
	C432.722900,397.827850 438.042755,398.026581 443.259216,398.174774 
	C453.544800,398.466980 463.839386,398.444763 474.130341,398.544525 
	C477.921814,398.581299 481.713501,398.593903 485.505096,398.620178 
	C491.698456,398.663147 497.894348,398.837830 504.084473,398.717102 
	C510.711060,398.587891 517.330688,398.134003 523.956482,397.917358 
	C526.913513,397.820648 529.879761,397.907349 532.839172,397.997406 
	C543.085144,398.309326 553.328735,398.860199 563.575623,398.923920 
	C570.369080,398.966217 577.178528,397.907928 583.959961,398.095490 
	C595.209839,398.406555 606.427856,399.154053 617.508057,395.354706 
	C603.062012,407.003937 588.405518,418.407990 573.626282,429.650635 
	C552.048523,446.064911 530.422058,462.415771 508.731812,478.681000 
	C501.660065,483.983978 494.324280,488.934784 486.772034,493.901001 
	C477.859161,488.234711 469.140167,482.922577 460.740631,477.145935 
	C447.246674,467.865662 434.142395,458.012085 420.543427,448.892944 
	C405.958191,439.112427 390.809937,430.170288 376.244720,420.361389 
	C362.786285,411.297852 349.965210,401.286682 336.490448,392.248932 
	C329.009735,387.231506 320.765900,383.351807 312.866028,378.959320 
	C322.016205,370.352905 331.166382,361.746521 340.604919,352.964294 
z"/>
<path fill="#0068AE" opacity="1.000000" stroke="none" 
	d="
M312.567230,379.104614 
	C320.765900,383.351807 329.009735,387.231506 336.490448,392.248932 
	C349.965210,401.286682 362.786285,411.297852 376.244720,420.361389 
	C390.809937,430.170288 405.958191,439.112427 420.543427,448.892944 
	C434.142395,458.012085 447.246674,467.865662 460.740631,477.145935 
	C469.140167,482.922577 477.859161,488.234711 486.616699,494.213013 
	C484.947540,496.223511 483.132660,497.821991 481.238678,499.320465 
	C475.429901,503.916199 469.590851,508.473663 463.763550,513.045959 
	C456.638794,507.971100 449.529785,502.873810 442.376190,497.839966 
	C440.905579,496.805054 439.268219,496.007141 437.360168,495.031158 
	C430.597046,489.746765 424.308350,484.365143 417.743164,479.345215 
	C393.101257,460.503143 368.373016,441.773926 343.669159,423.012939 
	C330.583099,413.074921 317.465851,403.177734 304.409088,393.201447 
	C303.146057,392.236359 302.211670,390.841156 301.077026,389.301819 
	C304.775665,385.721985 308.522064,382.485962 312.567230,379.104614 
z"/>
<path fill="#22A7F2" opacity="1.000000" stroke="none" 
	d="
M1018.036316,138.587524 
	C1017.101685,137.825684 1016.126587,136.701065 1015.096558,135.233063 
	C1016.026367,136.001373 1017.011108,137.113068 1018.036316,138.587524 
z"/>
<path fill="#22A7F2" opacity="1.000000" stroke="none" 
	d="
M1019.884277,142.676453 
	C1019.219482,141.890961 1018.629517,140.763687 1018.047180,139.283157 
	C1018.689575,140.064819 1019.324341,141.199768 1019.884277,142.676453 
z"/>
<path fill="#22A7F2" opacity="1.000000" stroke="none" 
	d="
M1022.886230,151.647980 
	C1022.555664,151.183197 1022.299438,150.368790 1022.038818,149.228027 
	C1022.343079,149.700546 1022.651855,150.499451 1022.886230,151.647980 
z"/>
<path fill="#0068AE" opacity="1.000000" stroke="none" 
	d="
M300.972656,388.714233 
	C300.844360,388.976257 300.652527,388.983398 300.173584,388.964783 
	C300.227295,388.779144 300.568207,388.619232 300.972656,388.714233 
z"/>
<path fill="#22A7F2" opacity="1.000000" stroke="none" 
	d="
M1021.866333,146.738068 
	C1021.603821,146.794098 1021.410522,146.560440 1021.139648,146.102112 
	C1021.325806,146.090424 1021.617004,146.280731 1021.866333,146.738068 
z"/>
<path fill="#22A7F2" opacity="1.000000" stroke="none" 
	d="
M1020.848694,144.738144 
	C1020.591858,144.792511 1020.400574,144.561096 1020.132202,144.107178 
	C1020.314209,144.096466 1020.600586,144.285706 1020.848694,144.738144 
z"/>
<path fill="#25B0F3" opacity="1.000000" stroke="none" 
	d="
M711.751221,15.089622 
	C711.975708,15.410180 711.818848,15.649225 711.331848,15.885246 
	C711.247253,15.671456 711.369995,15.380086 711.751221,15.089622 
z"/>
<path fill="#000000" opacity="1.000000" stroke="none" 
	d="
M463.938843,513.348389 
	C469.590851,508.473663 475.429901,503.916199 481.238678,499.320465 
	C483.132660,497.821991 484.947540,496.223511 486.953918,494.358704 
	C494.324280,488.934784 501.660065,483.983978 508.731812,478.681000 
	C530.422058,462.415771 552.048523,446.064911 573.626282,429.650635 
	C588.405518,418.407990 603.062012,407.003937 617.920471,395.365326 
	C618.067566,395.058624 618.023010,395.036285 618.381348,395.006226 
	C621.188171,392.995300 623.636719,391.014404 626.085266,389.033508 
	C632.657898,384.232239 639.278809,379.495361 645.793518,374.616699 
	C660.326050,363.733612 674.827942,352.809235 689.294678,341.838928 
	C694.511047,337.883240 699.591003,333.747772 705.212646,329.339172 
	C706.822876,328.000122 707.953552,327.016174 709.084290,326.032227 
	C709.084290,326.032227 709.548340,325.944153 710.096497,325.801514 
	C717.414246,320.427917 724.172424,315.182007 730.957153,309.970886 
	C736.284180,305.879364 741.644226,301.830780 747.316772,297.713806 
	C754.739624,292.460236 761.835266,287.255951 768.930969,282.051697 
	C768.963135,314.390564 768.995300,346.729431 769.097290,379.532104 
	C769.109924,380.990662 769.002563,381.985382 769.002625,382.980103 
	C769.005554,491.676361 769.016541,600.372620 769.096924,709.532715 
	C769.106323,721.008301 769.045898,732.020081 768.603394,743.530334 
	C765.477600,742.080872 762.733765,740.132935 759.989990,738.184998 
	C751.888184,731.904602 743.795044,725.612854 735.661499,719.373779 
	C735.202087,719.021423 734.410522,719.102112 733.407166,718.932495 
	C708.751587,700.157166 684.462341,681.430664 659.896973,662.496460 
	C659.620850,662.288818 659.600708,662.182922 659.369507,661.957886 
	C658.087769,660.904114 657.037231,660.075317 655.986694,659.246582 
	C655.178772,658.583313 654.370850,657.919983 653.207031,656.898071 
	C652.660767,656.198547 652.383606,656.098755 652.019592,656.240112 
	C651.204529,655.589539 650.389465,654.938904 649.237915,653.891357 
	C648.605347,653.393127 648.309387,653.291809 648.013367,653.190491 
	C647.215393,652.541992 646.417419,651.893433 645.263550,650.866699 
	C644.609314,650.385925 644.311035,650.283447 644.012817,650.180969 
	C643.216248,649.534424 642.419617,648.887939 641.265625,647.864563 
	C640.609558,647.384277 640.310974,647.280823 640.012390,647.177368 
	C630.549011,640.204590 621.036011,633.297852 611.632935,626.244751 
	C594.129761,613.115906 576.687012,599.906311 559.225525,586.721863 
	C538.894409,571.370544 518.502869,556.097961 498.268860,540.619568 
	C486.748566,531.806946 475.490326,522.651733 463.938843,513.348389 
z"/>
<path fill="#0071B6" opacity="1.000000" stroke="none" 
	d="
M746.989624,297.763123 
	C741.644226,301.830780 736.284180,305.879364 730.957153,309.970886 
	C724.172424,315.182007 717.414246,320.427917 710.316284,325.715210 
	C711.816101,321.200623 714.819092,316.729797 715.219055,312.037109 
	C715.967773,303.252350 722.183289,296.734558 723.602661,288.452087 
	C724.313171,284.305695 724.168335,280.019836 724.716003,275.837067 
	C726.258606,264.054962 728.082764,252.308975 729.555481,240.518707 
	C730.561157,232.466965 730.979492,224.341553 731.997314,216.291656 
	C733.031860,208.109543 734.658081,200.002426 735.700928,191.821121 
	C736.974365,181.831573 737.923035,171.800354 738.984985,161.784286 
	C739.387634,157.987671 739.682190,154.179642 740.082153,150.382721 
	C742.044067,131.755386 744.086243,113.136238 745.975830,94.501610 
	C747.077820,83.634491 747.439148,72.665916 749.091614,61.889893 
	C750.263855,54.245930 752.408325,46.584450 755.386047,39.460499 
	C756.699951,36.317078 761.156616,34.487270 764.536621,32.036022 
	C766.255737,40.247131 768.106812,48.440113 768.849976,56.732388 
	C769.512756,64.128052 768.950623,71.633484 768.552979,79.701004 
	C767.453552,82.237404 766.395508,84.110443 766.081421,86.100891 
	C765.540161,89.531708 765.511475,93.040337 765.178345,96.507721 
	C764.561829,102.923256 763.661072,109.319649 763.282227,115.747803 
	C762.805786,123.833511 763.036499,131.966339 762.415649,140.036789 
	C761.537964,151.445557 760.138672,162.813690 759.004761,174.203400 
	C758.380127,180.477844 757.940857,186.771912 757.241638,193.037430 
	C756.247375,201.946320 754.789246,210.812912 754.073608,219.741211 
	C752.980957,233.373383 753.876770,246.995224 750.553101,260.662323 
	C747.647095,272.611420 748.049011,285.364960 746.989624,297.763123 
z"/>
<path fill="#006CB2" opacity="1.000000" stroke="none" 
	d="
M747.316772,297.713806 
	C748.049011,285.364960 747.647095,272.611420 750.553101,260.662323 
	C753.876770,246.995224 752.980957,233.373383 754.073608,219.741211 
	C754.789246,210.812912 756.247375,201.946320 757.241638,193.037430 
	C757.940857,186.771912 758.380127,180.477844 759.004761,174.203400 
	C760.138672,162.813690 761.537964,151.445557 762.415649,140.036789 
	C763.036499,131.966339 762.805786,123.833511 763.282227,115.747803 
	C763.661072,109.319649 764.561829,102.923256 765.178345,96.507721 
	C765.511475,93.040337 765.540161,89.531708 766.081421,86.100891 
	C766.395508,84.110443 767.453552,82.237404 768.506104,80.169258 
	C768.887329,97.656174 768.974243,115.285347 768.984436,132.914566 
	C769.012878,182.314346 769.009583,231.714142 768.974854,281.582794 
	C761.835266,287.255951 754.739624,292.460236 747.316772,297.713806 
z"/>
<path fill="#0072C9" opacity="1.000000" stroke="none" 
	d="
M759.991577,738.608521 
	C762.733765,740.132935 765.477600,742.080872 768.571899,743.995728 
	C768.952454,821.388977 769.020447,898.815369 768.985535,976.241699 
	C768.976990,995.139954 756.080933,1012.724121 732.420044,1014.747314 
	C730.004822,1009.662537 730.438232,1005.063232 733.683655,1000.354980 
	C734.843079,998.672974 734.571960,995.418762 733.923767,993.180481 
	C731.398865,984.462402 732.119141,976.162048 735.921326,967.993042 
	C736.446106,966.865540 736.779541,965.310242 736.446228,964.174744 
	C733.369446,953.693909 736.765015,943.960266 739.473633,934.067688 
	C740.726501,929.492249 741.784180,924.709900 741.871277,920.001770 
	C742.037964,910.986511 742.945007,902.346924 745.467102,893.507202 
	C747.518066,886.318787 746.165710,878.158936 746.317993,870.429749 
	C746.350464,868.780396 745.914856,866.962891 746.458923,865.508667 
	C749.709412,856.821045 748.703186,847.791382 749.101807,838.845276 
	C749.329163,833.743225 749.667053,828.309143 751.574951,823.694275 
	C754.807861,815.874695 753.624573,807.983643 753.933777,800.067566 
	C754.144714,794.665161 754.723633,789.275391 755.202148,783.885681 
	C755.583008,779.595520 756.037903,775.311462 756.500366,771.029114 
	C757.652283,760.362122 758.827332,749.697632 759.991577,738.608521 
z"/>
<path fill="#0082CF" opacity="1.000000" stroke="none" 
	d="
M656.024170,659.600037 
	C657.037231,660.075317 658.087769,660.904114 659.315796,661.962952 
	C658.349487,661.446472 657.205566,660.700012 656.024170,659.600037 
z"/>
<path fill="#0082CF" opacity="1.000000" stroke="none" 
	d="
M652.164185,656.387207 
	C652.383606,656.098755 652.660767,656.198547 652.918701,656.770630 
	C652.739685,656.876099 652.513855,656.720276 652.164185,656.387207 
z"/>
<path fill="#0082CF" opacity="1.000000" stroke="none" 
	d="
M648.164734,653.343872 
	C648.309387,653.291809 648.605347,653.393127 648.959473,653.744629 
	C648.762634,653.858704 648.528809,653.692810 648.164734,653.343872 
z"/>
<path fill="#0082CF" opacity="1.000000" stroke="none" 
	d="
M644.170105,650.335205 
	C644.311035,650.283447 644.609314,650.385925 644.981262,650.735535 
	C644.790588,650.850403 644.548096,650.685974 644.170105,650.335205 
z"/>
<path fill="#0082CF" opacity="1.000000" stroke="none" 
	d="
M640.170288,647.332153 
	C640.310974,647.280823 640.609558,647.384277 640.983643,647.734375 
	C640.793579,647.848938 640.549927,647.684204 640.170288,647.332153 
z"/>
<path fill="#0071B3" opacity="1.000000" stroke="none" 
	d="
M625.718018,389.050598 
	C623.636719,391.014404 621.188171,392.995300 618.392944,395.027557 
	C620.481140,393.075165 622.915955,391.071411 625.718018,389.050598 
z"/>
<path fill="#0071B6" opacity="1.000000" stroke="none" 
	d="
M708.723816,326.049622 
	C707.953552,327.016174 706.822876,328.000122 705.363037,329.037415 
	C706.143799,328.082855 707.253601,327.074951 708.723816,326.049622 
z"/>
</svg>